<?xml version="1.0" encoding="UTF-8"?>
<svg id="Layer_2" data-name="Layer 2" xmlns="http://www.w3.org/2000/svg" viewBox="0 0 237.22 71.39">
  <defs>
    <style>
      .cls-1 {
        fill: #fff;
      }

      .cls-2 {
        fill: #10b981;
      }
    </style>
  </defs>
  <g id="Layer_1-2" data-name="Layer 1">
    <g>
      <path class="cls-1" d="M18.21,0h.31l18.08,37.77h-8.32l-3-6.56h-13.9l-2.89,6.56H.18L18.21,0ZM22.91,25.63c-1.7-3.88-3.36-7.8-4.49-11.06-1.08,2.58-3.05,7.54-4.6,11.06h9.09Z"/>
      <path class="cls-1" d="M50.53,38.34h-.31L31.88.57h8.68l4.86,10.75c1.91,4.29,3.62,7.96,4.91,11.57,1.09-2.63,3.36-7.9,5.01-11.57L60.19.57h8.63l-18.29,37.77Z"/>
      <path class="cls-1" d="M74.47,37.77V.57h7.96v37.2h-7.96Z"/>
      <path class="cls-1" d="M92.55,37.77V.57h11.88c12.66,0,20.67,7.7,20.67,18.6s-7.96,18.6-20.56,18.6h-11.99ZM100.51,7.23v23.87h3.93c7.96,0,12.66-5.17,12.66-11.93s-4.7-11.94-12.76-11.94h-3.82Z"/>
      <path class="cls-1" d="M145.05,0h.31l18.08,37.77h-8.32l-3-6.56h-13.9l-2.89,6.56h-8.32L145.05,0ZM149.75,25.63c-1.71-3.88-3.36-7.8-4.5-11.06-1.08,2.58-3.05,7.54-4.6,11.06h9.09Z"/>
      <path class="cls-1" d="M182.35.57c8.63,0,14.36,4.29,14.36,12.25,0,5.42-3.05,8.99-7.08,10.59l7.8,14.36h-8.42l-6.56-13.02h-5.37v13.02h-7.8V.57h13.07ZM177.08,7.23v11.11h5.68c3.51,0,5.94-1.76,5.94-5.53s-2.53-5.58-6.15-5.58h-5.48Z"/>
      <path class="cls-1" d="M218.82,0h.31l18.08,37.77h-8.32l-3-6.56h-13.9l-2.89,6.56h-8.32L218.82,0ZM223.52,25.63c-1.71-3.88-3.36-7.8-4.5-11.06-1.08,2.58-3.05,7.54-4.6,11.06h9.09Z"/>
      <path class="cls-1" d="M18.03.03h.31l18.08,37.77h-8.32l-3-6.56h-13.9l-2.89,6.56H0L18.03.03ZM22.73,25.65c-1.7-3.88-3.36-7.8-4.49-11.06-1.08,2.58-3.05,7.54-4.6,11.06h9.09Z"/>
      <path class="cls-2" d="M60.19.57l-4.86,10.75c-1.65,3.67-3.93,8.94-5.01,11.57-1.29-3.62-3-7.29-4.91-11.57l-.68-1.5h0c-2.62,5.49-2.6,11.88.06,17.35l5.42,11.17h.31L68.82.57h-8.63Z"/>
      <path class="cls-1" d="M74.29,37.8V.6h7.96v37.2h-7.96Z"/>
      <path class="cls-1" d="M144.87.03h.31l18.08,37.77h-8.32l-3-6.56h-13.9l-2.89,6.56h-8.32L144.87.03ZM149.57,25.65c-1.71-3.88-3.36-7.8-4.5-11.06-1.08,2.58-3.05,7.54-4.6,11.06h9.09Z"/>
      <path class="cls-1" d="M182.17.6c8.63,0,14.36,4.29,14.36,12.25,0,5.42-3.05,8.99-7.08,10.59l7.8,14.36h-8.42l-6.56-13.02h-5.37v13.02h-7.8V.6h13.07ZM176.9,7.26v11.11h5.68c3.51,0,5.94-1.76,5.94-5.53s-2.53-5.58-6.15-5.58h-5.48Z"/>
      <path class="cls-1" d="M218.64.03h.31l18.08,37.77h-8.32l-3-6.56h-13.9l-2.89,6.56h-8.32L218.64.03ZM223.35,25.65c-1.71-3.88-3.36-7.8-4.5-11.06-1.08,2.58-3.05,7.54-4.6,11.06h9.09Z"/>
      <g>
        <path class="cls-1" d="M13.95,64.23c0-2.55,1.87-4.42,4.52-4.42,2.27,0,3.99,1.38,4.42,3.39h-2.22c-.34-.87-1.13-1.44-2.2-1.44-1.44,0-2.39,1.04-2.39,2.47s.95,2.47,2.39,2.47c1.07,0,1.86-.57,2.2-1.44h2.22c-.43,2.01-2.15,3.39-4.42,3.39-2.65,0-4.52-1.87-4.52-4.42Z"/>
        <path class="cls-1" d="M26.24,65.27c0-1.95,1.43-3.38,3.46-3.38s3.46,1.43,3.46,3.38-1.43,3.38-3.46,3.38-3.46-1.43-3.46-3.38ZM31.18,65.27c0-.92-.6-1.56-1.48-1.56s-1.48.64-1.48,1.56.6,1.56,1.48,1.56,1.48-.64,1.48-1.56Z"/>
        <path class="cls-1" d="M36.77,64.86c0-2.07,1.2-2.98,2.76-2.98.91,0,1.68.35,2.16,1.03.48-.68,1.23-1.03,2.16-1.03,1.56,0,2.76.91,2.76,2.98v3.61h-1.95v-3.61c0-.86-.42-1.16-1-1.16s-.99.3-.99,1.16v3.61h-1.95v-3.61c0-.86-.42-1.16-.99-1.16s-1,.3-1,1.16v3.61h-1.95v-3.61Z"/>
        <path class="cls-1" d="M50.48,65.33c0-2.16,1.46-3.44,3.42-3.44s3.47,1.39,3.47,3.46c0,2.24-1.66,3.3-3.12,3.3-.77,0-1.42-.3-1.82-.87v3.45h-1.95v-5.89ZM55.39,65.27c0-.92-.6-1.56-1.48-1.56s-1.48.64-1.48,1.56.6,1.56,1.48,1.56,1.48-.64,1.48-1.56Z"/>
        <path class="cls-1" d="M61.19,59.25h1.95v9.23h-1.95v-9.23Z"/>
        <path class="cls-1" d="M67.16,60.22c0-.72.53-1.25,1.25-1.25s1.25.53,1.25,1.25-.53,1.25-1.25,1.25-1.25-.53-1.25-1.25ZM67.43,62.06h1.95v6.42h-1.95v-6.42Z"/>
        <path class="cls-1" d="M73.2,65.35c0-2.07,1.43-3.46,3.47-3.46s3.42,1.34,3.42,3.44v3.15h-1.79v-1.07c-.34.79-1.07,1.24-1.99,1.24-1.43,0-3.11-1.07-3.11-3.3ZM78.14,65.27c0-.92-.6-1.56-1.48-1.56s-1.48.64-1.48,1.56.6,1.56,1.48,1.56,1.48-.64,1.48-1.56Z"/>
        <path class="cls-1" d="M83.96,65.15c0-2.16,1.27-3.26,3.17-3.26s3.17,1.09,3.17,3.26v3.33h-1.95v-3.33c0-1.01-.49-1.44-1.22-1.44s-1.22.43-1.22,1.44v3.33h-1.95v-3.33Z"/>
        <path class="cls-1" d="M93.92,65.27c0-1.95,1.43-3.38,3.46-3.38,1.78,0,3.08,1.1,3.35,2.69h-1.98c-.22-.53-.73-.87-1.38-.87-.88,0-1.48.64-1.48,1.56s.6,1.56,1.48,1.56c.65,0,1.16-.34,1.38-.87h1.98c-.27,1.59-1.57,2.69-3.35,2.69-2.03,0-3.46-1.43-3.46-3.38Z"/>
        <path class="cls-1" d="M104.06,65.27c0-1.95,1.43-3.38,3.46-3.38s3.42,1.43,3.42,3.38v.55h-4.85c.16.75.73,1.09,1.43,1.09.56,0,.98-.12,1.22-.47h2.02c-.42,1.33-1.64,2.21-3.24,2.21-2.03,0-3.46-1.43-3.46-3.38ZM108.94,64.58c-.22-.66-.74-.95-1.42-.95s-1.2.3-1.39.95h2.81Z"/>
        <path class="cls-1" d="M120.84,59.98h2.11v8.5h-2.11v-8.5Z"/>
        <path class="cls-1" d="M127.06,65.15c0-2.16,1.27-3.26,3.17-3.26s3.17,1.09,3.17,3.26v3.33h-1.95v-3.33c0-1.01-.49-1.44-1.22-1.44s-1.22.43-1.22,1.44v3.33h-1.95v-3.33Z"/>
        <path class="cls-1" d="M137.28,65.94v-6.16h1.95v2.28h3.04v1.75h-3.04v2.13c0,.68.31.88.74.88s.74-.21.74-.88v-.2h1.95v.2c0,1.83-1.09,2.7-2.69,2.7s-2.69-.87-2.69-2.7Z"/>
        <path class="cls-1" d="M145.93,65.27c0-1.95,1.43-3.38,3.46-3.38s3.42,1.43,3.42,3.38v.55h-4.85c.16.75.73,1.09,1.43,1.09.56,0,.98-.12,1.22-.47h2.01c-.42,1.33-1.64,2.21-3.24,2.21-2.03,0-3.46-1.43-3.46-3.38ZM150.81,64.58c-.22-.66-.74-.95-1.42-.95s-1.2.3-1.39.95h2.81Z"/>
        <path class="cls-1" d="M156.63,59.25h1.95v9.23h-1.95v-9.23Z"/>
        <path class="cls-1" d="M162.87,59.25h1.95v9.23h-1.95v-9.23Z"/>
        <path class="cls-1" d="M168.84,60.22c0-.72.53-1.25,1.25-1.25s1.25.53,1.25,1.25-.53,1.25-1.25,1.25-1.25-.53-1.25-1.25ZM169.11,62.06h1.95v6.42h-1.95v-6.42Z"/>
        <path class="cls-1" d="M175.07,69.1h1.98c.19.4.66.6,1.31.6.95,0,1.47-.4,1.47-1.65v-.38c-.4.57-1.05.87-1.86.87-1.37,0-3.08-.9-3.08-3.28,0-1.95,1.43-3.38,3.46-3.38s3.43,1.34,3.43,3.44v2.65c0,2.46-1.55,3.41-3.41,3.41-1.64,0-2.91-.71-3.3-2.29ZM179.83,65.27c0-.92-.6-1.56-1.48-1.56s-1.48.64-1.48,1.56.6,1.46,1.48,1.46,1.48-.53,1.48-1.46Z"/>
        <path class="cls-1" d="M185.39,65.27c0-1.95,1.43-3.38,3.46-3.38s3.42,1.43,3.42,3.38v.55h-4.85c.16.75.73,1.09,1.43,1.09.56,0,.97-.12,1.22-.47h2.02c-.42,1.33-1.64,2.21-3.24,2.21-2.03,0-3.46-1.43-3.46-3.38ZM190.26,64.58c-.22-.66-.74-.95-1.42-.95s-1.2.3-1.39.95h2.81Z"/>
        <path class="cls-1" d="M195.88,65.15c0-2.16,1.27-3.26,3.17-3.26s3.17,1.09,3.17,3.26v3.33h-1.95v-3.33c0-1.01-.49-1.44-1.22-1.44s-1.22.43-1.22,1.44v3.33h-1.95v-3.33Z"/>
        <path class="cls-1" d="M205.84,65.27c0-1.95,1.43-3.38,3.46-3.38,1.78,0,3.08,1.1,3.35,2.69h-1.98c-.22-.53-.73-.87-1.38-.87-.88,0-1.48.64-1.48,1.56s.6,1.56,1.48,1.56c.65,0,1.16-.34,1.38-.87h1.98c-.27,1.59-1.57,2.69-3.35,2.69-2.03,0-3.46-1.43-3.46-3.38Z"/>
        <path class="cls-1" d="M215.98,65.27c0-1.95,1.43-3.38,3.46-3.38s3.42,1.43,3.42,3.38v.55h-4.85c.16.75.73,1.09,1.43,1.09.56,0,.98-.12,1.22-.47h2.01c-.42,1.33-1.64,2.21-3.24,2.21-2.03,0-3.46-1.43-3.46-3.38ZM220.85,64.58c-.22-.66-.74-.95-1.42-.95s-1.2.3-1.39.95h2.81Z"/>
      </g>
    </g>
  </g>
</svg>
