<svg xmlns="http://www.w3.org/2000/svg" viewBox="0 0 55.32 55.32" fill="none">
  <rect width="55.32" height="55.32" rx="5.17" ry="5.17" fill="#4f46e5"/>
  <path fill="#fff" d="M27.82,43.85h-.27L11.44,11.44h7.62l4.26,9.22c1.68,3.68,3.18,6.83,4.31,9.93.95-2.26,2.95-6.78,4.4-9.93l4.26-9.22h7.57l-16.06,32.41Z"/>
  <path fill="#10b981" d="M36.3,11.44l-4.26,9.22c-1.45,3.15-3.45,7.67-4.4,9.93-1.13-3.1-2.63-6.25-4.31-9.93l-.59-1.28h0c-2.3,4.7-2.28,10.2.05,14.89l4.76,9.58h.27L43.87,11.44h-7.57Z"/>
</svg>
